<mxfile host="app.diagrams.net" modified="2023-04-24T23:15:10.742Z" agent="Mozilla/5.0 (Windows NT 10.0; Win64; x64) AppleWebKit/537.36 (KHTML, like Gecko) Chrome/112.0.0.0 Safari/537.36 Edg/112.0.1722.58" etag="02hYpnUc8HEjolCTm0Q9" version="21.2.1" type="github">
  <diagram id="prtHgNgQTEPvFCAcTncT" name="Page-1">
    <mxGraphModel dx="1470" dy="2276" grid="1" gridSize="10" guides="1" tooltips="1" connect="1" arrows="1" fold="1" page="1" pageScale="1" pageWidth="827" pageHeight="1169" math="0" shadow="0">
      <root>
        <mxCell id="0" />
        <mxCell id="1" parent="0" />
        <mxCell id="FGJcHL9Y1ml9AOconmwc-69" value="" style="swimlane;whiteSpace=wrap;html=1;align=center;labelBackgroundColor=default;endArrow=none;rounded=1;strokeColor=#788AA3;fontColor=#46495D;endFill=0;startSize=22;endSize=8;fillColor=#F8CECC;" parent="1" vertex="1">
          <mxGeometry x="334" y="437" width="696" height="252" as="geometry" />
        </mxCell>
        <mxCell id="FGJcHL9Y1ml9AOconmwc-98" value="Project Realization" style="text;align=left;labelBackgroundColor=none;fontSize=14;" parent="FGJcHL9Y1ml9AOconmwc-69" vertex="1">
          <mxGeometry x="21" y="-3" width="110" height="20" as="geometry" />
        </mxCell>
        <mxCell id="FGJcHL9Y1ml9AOconmwc-101" value="Quality Review" style="ellipse;whiteSpace=wrap;html=1;aspect=fixed;fontSize=14;fillColor=#fff2cc;strokeColor=#d6b656;strokeWidth=2;rounded=1;arcSize=12;" parent="FGJcHL9Y1ml9AOconmwc-69" vertex="1">
          <mxGeometry x="17" y="72" width="80" height="80" as="geometry" />
        </mxCell>
        <mxCell id="-M8wyw6FT1LA_XMjb7wH-20" value="Specs" style="ellipse;whiteSpace=wrap;html=1;aspect=fixed;fontSize=14;fillColor=#fff2cc;strokeColor=#d6b656;strokeWidth=2;rounded=1;arcSize=12;" vertex="1" parent="FGJcHL9Y1ml9AOconmwc-69">
          <mxGeometry x="110" y="72" width="80" height="80" as="geometry" />
        </mxCell>
        <mxCell id="-M8wyw6FT1LA_XMjb7wH-21" value="Project Standards" style="ellipse;whiteSpace=wrap;html=1;aspect=fixed;fontSize=14;fillColor=#fff2cc;strokeColor=#d6b656;strokeWidth=2;rounded=1;arcSize=12;" vertex="1" parent="FGJcHL9Y1ml9AOconmwc-69">
          <mxGeometry x="326" y="72" width="80" height="80" as="geometry" />
        </mxCell>
        <mxCell id="-M8wyw6FT1LA_XMjb7wH-22" value="Learning" style="ellipse;whiteSpace=wrap;html=1;aspect=fixed;fontSize=14;fillColor=#fff2cc;strokeColor=#d6b656;strokeWidth=2;rounded=1;arcSize=12;" vertex="1" parent="FGJcHL9Y1ml9AOconmwc-69">
          <mxGeometry x="526" y="72" width="80" height="80" as="geometry" />
        </mxCell>
        <mxCell id="-M8wyw6FT1LA_XMjb7wH-113" value="Robert W&#xa;Jennifer MW&#xa;Greg R" style="rounded=1;align=center;arcSize=13;fillColor=#E8E8E8;strokeColor=#788AA3;fontColor=#46495D;fontStyle=0;startSize=20;labelBackgroundColor=none;endArrow=none;startArrow=classic;startFill=1;endFill=0;endSize=8;verticalAlign=middle;whiteSpace=wrap;fontSize=5;glass=0;" vertex="1" parent="FGJcHL9Y1ml9AOconmwc-69">
          <mxGeometry x="33" y="163" width="50" height="27" as="geometry" />
        </mxCell>
        <mxCell id="-M8wyw6FT1LA_XMjb7wH-114" value="Digital + &#xa;DR - Leads" style="rounded=1;align=center;arcSize=13;fillColor=#E8E8E8;strokeColor=#788AA3;fontColor=#46495D;fontStyle=0;startSize=20;labelBackgroundColor=none;endArrow=none;startArrow=classic;startFill=1;endFill=0;endSize=8;verticalAlign=middle;whiteSpace=wrap;fontSize=5;glass=0;" vertex="1" parent="FGJcHL9Y1ml9AOconmwc-69">
          <mxGeometry x="197" y="203" width="50" height="27" as="geometry" />
        </mxCell>
        <mxCell id="-M8wyw6FT1LA_XMjb7wH-115" value="Robert W&#xa;Scott S&#xa;David W" style="rounded=1;align=center;arcSize=13;fillColor=#E8E8E8;strokeColor=#788AA3;fontColor=#46495D;fontStyle=0;startSize=20;labelBackgroundColor=none;endArrow=none;startArrow=classic;startFill=1;endFill=0;endSize=8;verticalAlign=middle;whiteSpace=wrap;fontSize=5;glass=0;" vertex="1" parent="FGJcHL9Y1ml9AOconmwc-69">
          <mxGeometry x="125" y="163" width="50" height="27" as="geometry" />
        </mxCell>
        <mxCell id="-M8wyw6FT1LA_XMjb7wH-116" value="Templates" style="rounded=1;align=center;arcSize=16;fillColor=#dae8fc;strokeColor=#0080F0;fontColor=default;fontStyle=0;startSize=20;labelBackgroundColor=none;endArrow=none;startArrow=classic;startFill=1;endFill=0;endSize=8;verticalAlign=top;whiteSpace=wrap;fontSize=7;glass=0;strokeWidth=1;shadow=0;dashed=0;" vertex="1" parent="FGJcHL9Y1ml9AOconmwc-69">
          <mxGeometry x="197" y="163" width="50" height="27" as="geometry" />
        </mxCell>
        <mxCell id="-M8wyw6FT1LA_XMjb7wH-117" value="Digital +&#xa;DR - Leads" style="rounded=1;align=center;arcSize=13;fillColor=#E8E8E8;strokeColor=#788AA3;fontColor=#46495D;fontStyle=0;startSize=20;labelBackgroundColor=none;endArrow=none;startArrow=classic;startFill=1;endFill=0;endSize=8;verticalAlign=middle;whiteSpace=wrap;fontSize=5;glass=0;" vertex="1" parent="FGJcHL9Y1ml9AOconmwc-69">
          <mxGeometry x="253" y="203" width="50" height="27" as="geometry" />
        </mxCell>
        <mxCell id="-M8wyw6FT1LA_XMjb7wH-118" value="Documentation Standards" style="rounded=1;align=center;arcSize=16;fillColor=#dae8fc;strokeColor=#0080F0;fontColor=default;fontStyle=0;startSize=20;labelBackgroundColor=none;endArrow=none;startArrow=classic;startFill=1;endFill=0;endSize=8;verticalAlign=top;whiteSpace=wrap;fontSize=7;glass=0;strokeWidth=1;shadow=0;dashed=0;" vertex="1" parent="FGJcHL9Y1ml9AOconmwc-69">
          <mxGeometry x="253" y="163" width="50" height="27" as="geometry" />
        </mxCell>
        <mxCell id="-M8wyw6FT1LA_XMjb7wH-119" value="Eric L" style="rounded=1;align=center;arcSize=13;fillColor=#E8E8E8;strokeColor=#788AA3;fontColor=#46495D;fontStyle=0;startSize=20;labelBackgroundColor=none;endArrow=none;startArrow=classic;startFill=1;endFill=0;endSize=8;verticalAlign=middle;whiteSpace=wrap;fontSize=5;glass=0;" vertex="1" parent="FGJcHL9Y1ml9AOconmwc-69">
          <mxGeometry x="309" y="203" width="50" height="27" as="geometry" />
        </mxCell>
        <mxCell id="-M8wyw6FT1LA_XMjb7wH-120" value="Content Library" style="rounded=1;align=center;arcSize=16;fillColor=#dae8fc;strokeColor=#0080F0;fontColor=default;fontStyle=0;startSize=20;labelBackgroundColor=none;endArrow=none;startArrow=classic;startFill=1;endFill=0;endSize=8;verticalAlign=top;whiteSpace=wrap;fontSize=7;glass=0;strokeWidth=1;shadow=0;dashed=0;" vertex="1" parent="FGJcHL9Y1ml9AOconmwc-69">
          <mxGeometry x="309" y="163" width="50" height="27" as="geometry" />
        </mxCell>
        <mxCell id="-M8wyw6FT1LA_XMjb7wH-121" value="Katie N&#xa;Scott C" style="rounded=1;align=center;arcSize=13;fillColor=#E8E8E8;strokeColor=#788AA3;fontColor=#46495D;fontStyle=0;startSize=20;labelBackgroundColor=none;endArrow=none;startArrow=classic;startFill=1;endFill=0;endSize=8;verticalAlign=middle;whiteSpace=wrap;fontSize=5;glass=0;" vertex="1" parent="FGJcHL9Y1ml9AOconmwc-69">
          <mxGeometry x="365" y="203" width="50" height="27" as="geometry" />
        </mxCell>
        <mxCell id="-M8wyw6FT1LA_XMjb7wH-122" value="Assembly Libraries" style="rounded=1;align=center;arcSize=16;fillColor=#F8CECC;strokeColor=#808080;fontColor=default;fontStyle=0;startSize=20;labelBackgroundColor=none;endArrow=none;startArrow=classic;startFill=1;endFill=0;endSize=8;verticalAlign=top;whiteSpace=wrap;fontSize=7;glass=0;strokeWidth=1;shadow=0;dashed=0;" vertex="1" parent="FGJcHL9Y1ml9AOconmwc-69">
          <mxGeometry x="365" y="163" width="50" height="27" as="geometry" />
        </mxCell>
        <mxCell id="-M8wyw6FT1LA_XMjb7wH-123" value="Kevin R&#xa;" style="rounded=1;align=center;arcSize=13;fillColor=#E8E8E8;strokeColor=#788AA3;fontColor=#46495D;fontStyle=0;startSize=20;labelBackgroundColor=none;endArrow=none;startArrow=classic;startFill=1;endFill=0;endSize=8;verticalAlign=middle;whiteSpace=wrap;fontSize=5;glass=0;" vertex="1" parent="FGJcHL9Y1ml9AOconmwc-69">
          <mxGeometry x="421" y="203" width="50" height="27" as="geometry" />
        </mxCell>
        <mxCell id="-M8wyw6FT1LA_XMjb7wH-124" value="Detail Library" style="rounded=1;align=center;arcSize=16;fillColor=#F8CECC;strokeColor=#808080;fontColor=default;fontStyle=0;startSize=20;labelBackgroundColor=none;endArrow=none;startArrow=classic;startFill=1;endFill=0;endSize=8;verticalAlign=top;whiteSpace=wrap;fontSize=7;glass=0;strokeWidth=1;shadow=0;dashed=0;" vertex="1" parent="FGJcHL9Y1ml9AOconmwc-69">
          <mxGeometry x="421" y="163" width="50" height="27" as="geometry" />
        </mxCell>
        <mxCell id="-M8wyw6FT1LA_XMjb7wH-125" value="Winnie S&#xa;Kelley L" style="rounded=1;align=center;arcSize=13;fillColor=#E8E8E8;strokeColor=#788AA3;fontColor=#46495D;fontStyle=0;startSize=20;labelBackgroundColor=none;endArrow=none;startArrow=classic;startFill=1;endFill=0;endSize=8;verticalAlign=middle;whiteSpace=wrap;fontSize=5;glass=0;" vertex="1" parent="FGJcHL9Y1ml9AOconmwc-69">
          <mxGeometry x="477" y="203" width="50" height="27" as="geometry" />
        </mxCell>
        <mxCell id="-M8wyw6FT1LA_XMjb7wH-126" value="Manual of Practice" style="rounded=1;align=center;arcSize=16;fillColor=#F8CECC;strokeColor=#808080;fontColor=default;fontStyle=0;startSize=20;labelBackgroundColor=none;endArrow=none;startArrow=classic;startFill=1;endFill=0;endSize=8;verticalAlign=top;whiteSpace=wrap;fontSize=7;glass=0;strokeWidth=1;shadow=0;dashed=0;" vertex="1" parent="FGJcHL9Y1ml9AOconmwc-69">
          <mxGeometry x="477" y="163" width="50" height="27" as="geometry" />
        </mxCell>
        <mxCell id="-M8wyw6FT1LA_XMjb7wH-127" value="LinkedIn Learning" style="rounded=1;align=center;arcSize=16;fillColor=#F8CECC;strokeColor=#808080;fontColor=default;fontStyle=0;startSize=20;labelBackgroundColor=none;endArrow=none;startArrow=classic;startFill=1;endFill=0;endSize=8;verticalAlign=top;whiteSpace=wrap;fontSize=7;glass=0;strokeWidth=1;shadow=0;dashed=0;" vertex="1" parent="FGJcHL9Y1ml9AOconmwc-69">
          <mxGeometry x="546" y="163" width="50" height="27" as="geometry" />
        </mxCell>
        <mxCell id="-M8wyw6FT1LA_XMjb7wH-128" value="Lunch &amp; Learns" style="rounded=1;align=center;arcSize=16;fillColor=#F8CECC;strokeColor=#808080;fontColor=default;fontStyle=0;startSize=20;labelBackgroundColor=none;endArrow=none;startArrow=classic;startFill=1;endFill=0;endSize=8;verticalAlign=top;whiteSpace=wrap;fontSize=7;glass=0;strokeWidth=1;shadow=0;dashed=0;" vertex="1" parent="FGJcHL9Y1ml9AOconmwc-69">
          <mxGeometry x="606" y="142" width="50" height="27" as="geometry" />
        </mxCell>
        <mxCell id="-M8wyw6FT1LA_XMjb7wH-129" value="Just-in-time" style="rounded=1;align=center;arcSize=16;fillColor=#F8CECC;strokeColor=#808080;fontColor=default;fontStyle=0;startSize=20;labelBackgroundColor=none;endArrow=none;startArrow=classic;startFill=1;endFill=0;endSize=8;verticalAlign=top;whiteSpace=wrap;fontSize=7;glass=0;strokeWidth=1;shadow=0;dashed=0;" vertex="1" parent="FGJcHL9Y1ml9AOconmwc-69">
          <mxGeometry x="616" y="102.5" width="50" height="27" as="geometry" />
        </mxCell>
        <mxCell id="-M8wyw6FT1LA_XMjb7wH-130" value="External Sources" style="rounded=1;align=center;arcSize=16;fillColor=#F8CECC;strokeColor=#808080;fontColor=default;fontStyle=0;startSize=20;labelBackgroundColor=none;endArrow=none;startArrow=classic;startFill=1;endFill=0;endSize=8;verticalAlign=top;whiteSpace=wrap;fontSize=7;glass=0;strokeWidth=1;shadow=0;dashed=0;" vertex="1" parent="FGJcHL9Y1ml9AOconmwc-69">
          <mxGeometry x="606" y="63" width="50" height="27" as="geometry" />
        </mxCell>
        <mxCell id="-M8wyw6FT1LA_XMjb7wH-132" style="edgeStyle=orthogonalEdgeStyle;rounded=1;orthogonalLoop=1;jettySize=auto;html=1;entryX=0.483;entryY=1.046;entryDx=0;entryDy=0;entryPerimeter=0;endArrow=blockThin;fontSize=12;strokeColor=#788AA3;fontColor=#46495D;endFill=1;startSize=8;endSize=8;fillColor=#B2C9AB;" edge="1" parent="FGJcHL9Y1ml9AOconmwc-69" source="-M8wyw6FT1LA_XMjb7wH-131" target="-M8wyw6FT1LA_XMjb7wH-128">
          <mxGeometry relative="1" as="geometry">
            <Array as="points">
              <mxPoint x="641" y="190" />
              <mxPoint x="630" y="190" />
            </Array>
          </mxGeometry>
        </mxCell>
        <mxCell id="-M8wyw6FT1LA_XMjb7wH-131" value="Scott S" style="rounded=1;align=center;arcSize=13;fillColor=#E8E8E8;strokeColor=#788AA3;fontColor=#46495D;fontStyle=0;startSize=20;labelBackgroundColor=none;endArrow=none;startArrow=classic;startFill=1;endFill=0;endSize=8;verticalAlign=middle;whiteSpace=wrap;fontSize=5;glass=0;" vertex="1" parent="FGJcHL9Y1ml9AOconmwc-69">
          <mxGeometry x="616" y="203" width="50" height="27" as="geometry" />
        </mxCell>
        <mxCell id="-M8wyw6FT1LA_XMjb7wH-133" value="Roundtables" style="rounded=1;align=center;arcSize=16;fillColor=#F8CECC;strokeColor=#808080;fontColor=default;fontStyle=0;startSize=20;labelBackgroundColor=none;endArrow=none;startArrow=classic;startFill=1;endFill=0;endSize=8;verticalAlign=top;whiteSpace=wrap;fontSize=7;glass=0;strokeWidth=1;shadow=0;dashed=0;" vertex="1" parent="FGJcHL9Y1ml9AOconmwc-69">
          <mxGeometry x="553" y="32" width="50" height="27" as="geometry" />
        </mxCell>
        <mxCell id="FGJcHL9Y1ml9AOconmwc-68" value="" style="swimlane;whiteSpace=wrap;html=1;align=center;labelBackgroundColor=default;endArrow=none;rounded=1;strokeColor=#788AA3;fontColor=#46495D;startArrow=classic;startFill=1;endFill=0;startSize=20;endSize=8;fillColor=#B2C9AB;" parent="1" vertex="1">
          <mxGeometry x="334" y="40" width="696" height="390" as="geometry" />
        </mxCell>
        <mxCell id="FGJcHL9Y1ml9AOconmwc-78" value="" style="group" parent="FGJcHL9Y1ml9AOconmwc-68" vertex="1" connectable="0">
          <mxGeometry x="16" y="130" width="120" height="60" as="geometry" />
        </mxCell>
        <mxCell id="-M8wyw6FT1LA_XMjb7wH-53" style="edgeStyle=orthogonalEdgeStyle;rounded=1;orthogonalLoop=1;jettySize=auto;html=1;endArrow=blockThin;fontSize=12;strokeColor=#788AA3;startSize=8;endSize=8;fillColor=#B2C9AB;dashed=1;endFill=1;" edge="1" parent="FGJcHL9Y1ml9AOconmwc-78">
          <mxGeometry relative="1" as="geometry">
            <mxPoint x="136" y="322.85714285714283" as="targetPoint" />
            <mxPoint x="116" y="30.037037037036953" as="sourcePoint" />
          </mxGeometry>
        </mxCell>
        <mxCell id="FGJcHL9Y1ml9AOconmwc-74" value="Sean Burke&lt;br&gt;&lt;font style=&quot;font-size: 9px;&quot;&gt;Digital &lt;br&gt;Transformation Lead&lt;/font&gt;" style="whiteSpace=wrap;html=1;fontSize=12;fillColor=#dae8fc;strokeColor=#0080F0;strokeWidth=1;rounded=1;arcSize=16;glass=0;shadow=0;labelBackgroundColor=none;dashed=0;" parent="FGJcHL9Y1ml9AOconmwc-78" vertex="1">
          <mxGeometry width="120" height="60" as="geometry" />
        </mxCell>
        <mxCell id="FGJcHL9Y1ml9AOconmwc-75" value="" style="html=1;verticalLabelPosition=bottom;align=center;labelBackgroundColor=#ffffff;verticalAlign=top;strokeWidth=1;strokeColor=#0080F0;shadow=0;dashed=0;shape=mxgraph.ios7.icons.user;rounded=1;glass=0;fontFamily=Helvetica;fontSize=12;fontColor=default;fillColor=#dae8fc;" parent="FGJcHL9Y1ml9AOconmwc-78" vertex="1">
          <mxGeometry width="20" height="20" as="geometry" />
        </mxCell>
        <mxCell id="-M8wyw6FT1LA_XMjb7wH-44" style="edgeStyle=orthogonalEdgeStyle;rounded=1;orthogonalLoop=1;jettySize=auto;html=1;endArrow=blockThin;fontSize=12;strokeColor=#788AA3;fontColor=#46495D;startSize=8;endSize=8;fillColor=#B2C9AB;endFill=1;startArrow=none;startFill=0;entryX=1;entryY=0.25;entryDx=0;entryDy=0;" edge="1" parent="FGJcHL9Y1ml9AOconmwc-68" source="-M8wyw6FT1LA_XMjb7wH-42" target="FGJcHL9Y1ml9AOconmwc-74">
          <mxGeometry relative="1" as="geometry">
            <mxPoint x="176" y="120" as="targetPoint" />
            <Array as="points">
              <mxPoint x="166" y="70" />
              <mxPoint x="166" y="145" />
            </Array>
          </mxGeometry>
        </mxCell>
        <mxCell id="-M8wyw6FT1LA_XMjb7wH-42" value="&lt;span style=&quot;font-weight: normal;&quot;&gt;&lt;font style=&quot;font-size: 10px;&quot;&gt;Services&lt;/font&gt;&lt;/span&gt;" style="swimlane;horizontal=0;whiteSpace=wrap;html=1;labelBackgroundColor=default;endArrow=blockThin;rounded=1;strokeColor=#788AA3;fontColor=#46495D;startSize=20;endSize=8;fillColor=none;endFill=1;startArrow=classic;startFill=1;" vertex="1" parent="FGJcHL9Y1ml9AOconmwc-68">
          <mxGeometry x="196" y="30" width="434" height="160" as="geometry">
            <mxRectangle x="196" y="30" width="40" height="70" as="alternateBounds" />
          </mxGeometry>
        </mxCell>
        <mxCell id="FGJcHL9Y1ml9AOconmwc-85" value="" style="group" parent="-M8wyw6FT1LA_XMjb7wH-42" vertex="1" connectable="0">
          <mxGeometry x="65" y="10" width="120" height="60" as="geometry" />
        </mxCell>
        <mxCell id="FGJcHL9Y1ml9AOconmwc-86" value="Billy Craig&lt;br&gt;&lt;font style=&quot;font-size: 9px;&quot;&gt;Digital &lt;br&gt;Infrastructure&lt;/font&gt;" style="whiteSpace=wrap;html=1;fontSize=12;fillColor=#dae8fc;strokeColor=#0080F0;strokeWidth=1;rounded=1;arcSize=16;glass=0;shadow=0;labelBackgroundColor=none;dashed=0;" parent="FGJcHL9Y1ml9AOconmwc-85" vertex="1">
          <mxGeometry width="120" height="60" as="geometry" />
        </mxCell>
        <mxCell id="FGJcHL9Y1ml9AOconmwc-87" value="" style="html=1;verticalLabelPosition=bottom;align=center;labelBackgroundColor=#ffffff;verticalAlign=top;strokeWidth=1;strokeColor=#0080F0;shadow=0;dashed=0;shape=mxgraph.ios7.icons.user;rounded=1;glass=0;fontFamily=Helvetica;fontSize=12;fontColor=default;fillColor=#dae8fc;" parent="FGJcHL9Y1ml9AOconmwc-85" vertex="1">
          <mxGeometry width="20" height="20" as="geometry" />
        </mxCell>
        <mxCell id="FGJcHL9Y1ml9AOconmwc-82" value="" style="group" parent="-M8wyw6FT1LA_XMjb7wH-42" vertex="1" connectable="0">
          <mxGeometry x="226" y="10" width="120" height="60" as="geometry" />
        </mxCell>
        <mxCell id="FGJcHL9Y1ml9AOconmwc-83" value="James Diggs&lt;br&gt;&lt;font style=&quot;font-size: 9px;&quot;&gt;Digital &lt;br&gt;Specialist&lt;/font&gt;" style="whiteSpace=wrap;html=1;fontSize=12;fillColor=#dae8fc;strokeColor=#0080F0;strokeWidth=1;rounded=1;arcSize=16;glass=0;shadow=0;labelBackgroundColor=none;dashed=0;" parent="FGJcHL9Y1ml9AOconmwc-82" vertex="1">
          <mxGeometry width="120" height="60" as="geometry" />
        </mxCell>
        <mxCell id="FGJcHL9Y1ml9AOconmwc-84" value="" style="html=1;verticalLabelPosition=bottom;align=center;labelBackgroundColor=#ffffff;verticalAlign=top;strokeWidth=1;strokeColor=#0080F0;shadow=0;dashed=0;shape=mxgraph.ios7.icons.user;rounded=1;glass=0;fontFamily=Helvetica;fontSize=12;fontColor=default;fillColor=#dae8fc;" parent="FGJcHL9Y1ml9AOconmwc-82" vertex="1">
          <mxGeometry width="20" height="20" as="geometry" />
        </mxCell>
        <mxCell id="-M8wyw6FT1LA_XMjb7wH-96" value="" style="group" vertex="1" connectable="0" parent="-M8wyw6FT1LA_XMjb7wH-42">
          <mxGeometry x="233" y="74" width="106" height="72" as="geometry" />
        </mxCell>
        <mxCell id="-M8wyw6FT1LA_XMjb7wH-97" value="Customer Service" style="rounded=1;align=center;arcSize=0;fillColor=none;strokeColor=#788AA3;fontColor=#46495D;fontStyle=0;startSize=20;labelBackgroundColor=none;endArrow=none;startArrow=classic;startFill=1;endFill=0;endSize=8;verticalAlign=middle;whiteSpace=wrap;fontSize=5;glass=0;" vertex="1" parent="-M8wyw6FT1LA_XMjb7wH-96">
          <mxGeometry width="50" height="20" as="geometry" />
        </mxCell>
        <mxCell id="-M8wyw6FT1LA_XMjb7wH-98" value="Platform Management" style="rounded=1;align=center;arcSize=0;fillColor=none;strokeColor=#788AA3;fontColor=#46495D;fontStyle=0;startSize=20;labelBackgroundColor=none;endArrow=none;startArrow=classic;startFill=1;endFill=0;endSize=8;verticalAlign=middle;whiteSpace=wrap;fontSize=5;" vertex="1" parent="-M8wyw6FT1LA_XMjb7wH-96">
          <mxGeometry x="56" width="50" height="20" as="geometry" />
        </mxCell>
        <mxCell id="-M8wyw6FT1LA_XMjb7wH-99" value="Service Desk" style="rounded=1;align=center;arcSize=0;fillColor=none;strokeColor=#788AA3;fontColor=#46495D;fontStyle=0;startSize=20;labelBackgroundColor=none;endArrow=none;startArrow=classic;startFill=1;endFill=0;endSize=8;verticalAlign=middle;whiteSpace=wrap;fontSize=5;" vertex="1" parent="-M8wyw6FT1LA_XMjb7wH-96">
          <mxGeometry y="26" width="50" height="20" as="geometry" />
        </mxCell>
        <mxCell id="-M8wyw6FT1LA_XMjb7wH-100" value="Workstation Management" style="rounded=1;align=center;arcSize=0;fillColor=none;strokeColor=#788AA3;fontColor=#46495D;fontStyle=0;startSize=20;labelBackgroundColor=none;endArrow=none;startArrow=classic;startFill=1;endFill=0;endSize=8;verticalAlign=middle;whiteSpace=wrap;fontSize=5;" vertex="1" parent="-M8wyw6FT1LA_XMjb7wH-96">
          <mxGeometry x="56" y="26" width="50" height="20" as="geometry" />
        </mxCell>
        <mxCell id="-M8wyw6FT1LA_XMjb7wH-103" value="" style="group" vertex="1" connectable="0" parent="-M8wyw6FT1LA_XMjb7wH-42">
          <mxGeometry x="45" y="74" width="106" height="72" as="geometry" />
        </mxCell>
        <mxCell id="-M8wyw6FT1LA_XMjb7wH-104" value="Security" style="rounded=1;align=center;arcSize=0;fillColor=none;strokeColor=#788AA3;fontColor=#46495D;fontStyle=0;startSize=20;labelBackgroundColor=none;endArrow=none;startArrow=classic;startFill=1;endFill=0;endSize=8;verticalAlign=middle;whiteSpace=wrap;fontSize=5;glass=0;" vertex="1" parent="-M8wyw6FT1LA_XMjb7wH-103">
          <mxGeometry width="50" height="20" as="geometry" />
        </mxCell>
        <mxCell id="-M8wyw6FT1LA_XMjb7wH-105" value="Data Management" style="rounded=1;align=center;arcSize=0;fillColor=none;strokeColor=#788AA3;fontColor=#46495D;fontStyle=0;startSize=20;labelBackgroundColor=none;endArrow=none;startArrow=classic;startFill=1;endFill=0;endSize=8;verticalAlign=middle;whiteSpace=wrap;fontSize=5;" vertex="1" parent="-M8wyw6FT1LA_XMjb7wH-103">
          <mxGeometry x="56" width="50" height="20" as="geometry" />
        </mxCell>
        <mxCell id="-M8wyw6FT1LA_XMjb7wH-106" value="Infrastructure" style="rounded=1;align=center;arcSize=0;fillColor=none;strokeColor=#788AA3;fontColor=#46495D;fontStyle=0;startSize=20;labelBackgroundColor=none;endArrow=none;startArrow=classic;startFill=1;endFill=0;endSize=8;verticalAlign=middle;whiteSpace=wrap;fontSize=5;" vertex="1" parent="-M8wyw6FT1LA_XMjb7wH-103">
          <mxGeometry y="26" width="50" height="20" as="geometry" />
        </mxCell>
        <mxCell id="-M8wyw6FT1LA_XMjb7wH-107" value="Integrations" style="rounded=1;align=center;arcSize=0;fillColor=none;strokeColor=#788AA3;fontColor=#46495D;fontStyle=0;startSize=20;labelBackgroundColor=none;endArrow=none;startArrow=classic;startFill=1;endFill=0;endSize=8;verticalAlign=middle;whiteSpace=wrap;fontSize=5;" vertex="1" parent="-M8wyw6FT1LA_XMjb7wH-103">
          <mxGeometry x="56" y="26" width="50" height="20" as="geometry" />
        </mxCell>
        <mxCell id="-M8wyw6FT1LA_XMjb7wH-108" value="Maintenance" style="rounded=1;align=center;arcSize=0;fillColor=none;strokeColor=#788AA3;fontColor=#46495D;fontStyle=0;startSize=20;labelBackgroundColor=none;endArrow=none;startArrow=classic;startFill=1;endFill=0;endSize=8;verticalAlign=middle;whiteSpace=wrap;fontSize=5;perimeterSpacing=0;" vertex="1" parent="-M8wyw6FT1LA_XMjb7wH-103">
          <mxGeometry y="52" width="50" height="20" as="geometry" />
        </mxCell>
        <mxCell id="-M8wyw6FT1LA_XMjb7wH-109" value="Software Deployments" style="rounded=1;align=center;arcSize=0;fillColor=none;strokeColor=#788AA3;fontColor=#46495D;fontStyle=0;startSize=20;labelBackgroundColor=none;endArrow=none;startArrow=classic;startFill=1;endFill=0;endSize=8;verticalAlign=middle;whiteSpace=wrap;fontSize=5;" vertex="1" parent="-M8wyw6FT1LA_XMjb7wH-103">
          <mxGeometry x="56" y="52" width="50" height="20" as="geometry" />
        </mxCell>
        <mxCell id="-M8wyw6FT1LA_XMjb7wH-110" value="Training" style="rounded=1;align=center;arcSize=0;fillColor=none;strokeColor=#788AA3;fontColor=#46495D;fontStyle=0;startSize=20;labelBackgroundColor=none;endArrow=none;startArrow=classic;startFill=1;endFill=0;endSize=8;verticalAlign=middle;whiteSpace=wrap;fontSize=5;" vertex="1" parent="-M8wyw6FT1LA_XMjb7wH-42">
          <mxGeometry x="158" y="74" width="50" height="20" as="geometry" />
        </mxCell>
        <mxCell id="-M8wyw6FT1LA_XMjb7wH-111" value="Collaboration Solutions" style="rounded=1;align=center;arcSize=0;fillColor=none;strokeColor=#788AA3;fontColor=#46495D;fontStyle=0;startSize=20;labelBackgroundColor=none;endArrow=none;startArrow=classic;startFill=1;endFill=0;endSize=8;verticalAlign=middle;whiteSpace=wrap;fontSize=5;" vertex="1" parent="-M8wyw6FT1LA_XMjb7wH-42">
          <mxGeometry x="158" y="100" width="50" height="20" as="geometry" />
        </mxCell>
        <mxCell id="-M8wyw6FT1LA_XMjb7wH-112" value="Support&#xa;Escalation" style="rounded=1;align=center;arcSize=0;fillColor=none;strokeColor=#788AA3;fontColor=#46495D;fontStyle=0;startSize=20;labelBackgroundColor=none;endArrow=none;startArrow=classic;startFill=1;endFill=0;endSize=8;verticalAlign=middle;whiteSpace=wrap;fontSize=5;" vertex="1" parent="-M8wyw6FT1LA_XMjb7wH-42">
          <mxGeometry x="158" y="126" width="50" height="20" as="geometry" />
        </mxCell>
        <mxCell id="-M8wyw6FT1LA_XMjb7wH-52" style="edgeStyle=orthogonalEdgeStyle;rounded=1;orthogonalLoop=1;jettySize=auto;html=1;entryX=1;entryY=0.25;entryDx=0;entryDy=0;endArrow=blockThin;fontSize=12;strokeColor=#788AA3;fontColor=#46495D;startSize=8;endSize=8;fillColor=#B2C9AB;endFill=1;startArrow=none;startFill=0;" edge="1" parent="FGJcHL9Y1ml9AOconmwc-68" source="-M8wyw6FT1LA_XMjb7wH-45" target="FGJcHL9Y1ml9AOconmwc-74">
          <mxGeometry relative="1" as="geometry">
            <Array as="points">
              <mxPoint x="166" y="230" />
              <mxPoint x="166" y="145" />
            </Array>
          </mxGeometry>
        </mxCell>
        <mxCell id="-M8wyw6FT1LA_XMjb7wH-45" value="&lt;span style=&quot;font-weight: normal;&quot;&gt;&lt;font style=&quot;font-size: 10px;&quot;&gt;Consulting&lt;/font&gt;&lt;/span&gt;" style="swimlane;horizontal=0;whiteSpace=wrap;html=1;labelBackgroundColor=default;endArrow=blockThin;rounded=1;strokeColor=#788AA3;fontColor=#46495D;startSize=20;endSize=8;fillColor=none;endFill=1;startArrow=classic;startFill=1;" vertex="1" parent="FGJcHL9Y1ml9AOconmwc-68">
          <mxGeometry x="196" y="202" width="434" height="175" as="geometry">
            <mxRectangle x="196" y="190" width="40" height="70" as="alternateBounds" />
          </mxGeometry>
        </mxCell>
        <mxCell id="FGJcHL9Y1ml9AOconmwc-79" value="" style="group" parent="-M8wyw6FT1LA_XMjb7wH-45" vertex="1" connectable="0">
          <mxGeometry x="38" y="10" width="120" height="60" as="geometry" />
        </mxCell>
        <mxCell id="FGJcHL9Y1ml9AOconmwc-80" value="Greg Stacy&lt;br&gt;&lt;font style=&quot;font-size: 9px;&quot;&gt;Digital &lt;br&gt;Design&lt;/font&gt;" style="whiteSpace=wrap;html=1;fontSize=12;fillColor=#dae8fc;strokeColor=#0080F0;strokeWidth=1;rounded=1;arcSize=16;glass=0;shadow=0;labelBackgroundColor=none;dashed=0;" parent="FGJcHL9Y1ml9AOconmwc-79" vertex="1">
          <mxGeometry width="120" height="60" as="geometry" />
        </mxCell>
        <mxCell id="FGJcHL9Y1ml9AOconmwc-81" value="" style="html=1;verticalLabelPosition=bottom;align=center;labelBackgroundColor=#ffffff;verticalAlign=top;strokeWidth=1;strokeColor=#0080F0;shadow=0;dashed=0;shape=mxgraph.ios7.icons.user;rounded=1;glass=0;fontFamily=Helvetica;fontSize=12;fontColor=default;fillColor=#dae8fc;" parent="FGJcHL9Y1ml9AOconmwc-79" vertex="1">
          <mxGeometry width="20" height="20" as="geometry" />
        </mxCell>
        <mxCell id="FGJcHL9Y1ml9AOconmwc-88" value="" style="group" parent="-M8wyw6FT1LA_XMjb7wH-45" vertex="1" connectable="0">
          <mxGeometry x="170" y="10" width="120" height="60" as="geometry" />
        </mxCell>
        <mxCell id="FGJcHL9Y1ml9AOconmwc-89" value="Ren Rainville&lt;br&gt;&lt;font size=&quot;1&quot;&gt;Design&lt;br&gt;Computation&amp;nbsp;&lt;/font&gt;" style="whiteSpace=wrap;html=1;fontSize=12;fillColor=#dae8fc;strokeColor=#0080F0;strokeWidth=1;rounded=1;arcSize=16;glass=0;shadow=0;labelBackgroundColor=none;dashed=0;" parent="FGJcHL9Y1ml9AOconmwc-88" vertex="1">
          <mxGeometry width="120" height="60" as="geometry" />
        </mxCell>
        <mxCell id="FGJcHL9Y1ml9AOconmwc-90" value="" style="html=1;verticalLabelPosition=bottom;align=center;labelBackgroundColor=#ffffff;verticalAlign=top;strokeWidth=1;strokeColor=#0080F0;shadow=0;dashed=0;shape=mxgraph.ios7.icons.user;rounded=1;glass=0;fontFamily=Helvetica;fontSize=12;fontColor=default;fillColor=#dae8fc;" parent="FGJcHL9Y1ml9AOconmwc-88" vertex="1">
          <mxGeometry width="20" height="20" as="geometry" />
        </mxCell>
        <mxCell id="FGJcHL9Y1ml9AOconmwc-91" value="" style="group" parent="-M8wyw6FT1LA_XMjb7wH-45" vertex="1" connectable="0">
          <mxGeometry x="300" y="10" width="120" height="60" as="geometry" />
        </mxCell>
        <mxCell id="FGJcHL9Y1ml9AOconmwc-92" value="Eric Lovell&lt;br&gt;&lt;font size=&quot;1&quot;&gt;BIM&lt;/font&gt;" style="whiteSpace=wrap;html=1;fontSize=12;fillColor=#dae8fc;strokeColor=#0080F0;strokeWidth=1;rounded=1;arcSize=16;glass=0;shadow=0;labelBackgroundColor=none;dashed=0;" parent="FGJcHL9Y1ml9AOconmwc-91" vertex="1">
          <mxGeometry width="120" height="60" as="geometry" />
        </mxCell>
        <mxCell id="FGJcHL9Y1ml9AOconmwc-93" value="" style="html=1;verticalLabelPosition=bottom;align=center;labelBackgroundColor=#ffffff;verticalAlign=top;strokeWidth=1;strokeColor=#0080F0;shadow=0;dashed=0;shape=mxgraph.ios7.icons.user;rounded=1;glass=0;fontFamily=Helvetica;fontSize=12;fontColor=default;fillColor=#dae8fc;" parent="FGJcHL9Y1ml9AOconmwc-91" vertex="1">
          <mxGeometry width="20" height="20" as="geometry" />
        </mxCell>
        <mxCell id="-M8wyw6FT1LA_XMjb7wH-80" value="" style="group" vertex="1" connectable="0" parent="-M8wyw6FT1LA_XMjb7wH-45">
          <mxGeometry x="45" y="80" width="106" height="72" as="geometry" />
        </mxCell>
        <mxCell id="-M8wyw6FT1LA_XMjb7wH-69" value="Digital Design Standards" style="rounded=1;align=center;arcSize=0;fillColor=none;strokeColor=#788AA3;fontColor=#46495D;fontStyle=0;startSize=20;labelBackgroundColor=none;endArrow=none;startArrow=classic;startFill=1;endFill=0;endSize=8;verticalAlign=middle;whiteSpace=wrap;fontSize=5;glass=0;" vertex="1" parent="-M8wyw6FT1LA_XMjb7wH-80">
          <mxGeometry width="50" height="20" as="geometry" />
        </mxCell>
        <mxCell id="-M8wyw6FT1LA_XMjb7wH-70" value="Project Consulting" style="rounded=1;align=center;arcSize=0;fillColor=none;strokeColor=#788AA3;fontColor=#46495D;fontStyle=0;startSize=20;labelBackgroundColor=none;endArrow=none;startArrow=classic;startFill=1;endFill=0;endSize=8;verticalAlign=middle;whiteSpace=wrap;fontSize=5;" vertex="1" parent="-M8wyw6FT1LA_XMjb7wH-80">
          <mxGeometry x="56" width="50" height="20" as="geometry" />
        </mxCell>
        <mxCell id="-M8wyw6FT1LA_XMjb7wH-71" value="Workflows / Training" style="rounded=1;align=center;arcSize=0;fillColor=none;strokeColor=#788AA3;fontColor=#46495D;fontStyle=0;startSize=20;labelBackgroundColor=none;endArrow=none;startArrow=classic;startFill=1;endFill=0;endSize=8;verticalAlign=middle;whiteSpace=wrap;fontSize=5;" vertex="1" parent="-M8wyw6FT1LA_XMjb7wH-80">
          <mxGeometry y="26" width="50" height="20" as="geometry" />
        </mxCell>
        <mxCell id="-M8wyw6FT1LA_XMjb7wH-72" value="Productivity" style="rounded=1;align=center;arcSize=0;fillColor=none;strokeColor=#788AA3;fontColor=#46495D;fontStyle=0;startSize=20;labelBackgroundColor=none;endArrow=none;startArrow=classic;startFill=1;endFill=0;endSize=8;verticalAlign=middle;whiteSpace=wrap;fontSize=5;" vertex="1" parent="-M8wyw6FT1LA_XMjb7wH-80">
          <mxGeometry x="56" y="26" width="50" height="20" as="geometry" />
        </mxCell>
        <mxCell id="-M8wyw6FT1LA_XMjb7wH-73" value="Digital Fabrication" style="rounded=1;align=center;arcSize=0;fillColor=none;strokeColor=#788AA3;fontColor=#46495D;fontStyle=0;startSize=20;labelBackgroundColor=none;endArrow=none;startArrow=classic;startFill=1;endFill=0;endSize=8;verticalAlign=middle;whiteSpace=wrap;fontSize=5;perimeterSpacing=0;" vertex="1" parent="-M8wyw6FT1LA_XMjb7wH-80">
          <mxGeometry y="52" width="50" height="20" as="geometry" />
        </mxCell>
        <mxCell id="-M8wyw6FT1LA_XMjb7wH-74" value="Initiatives / Consulting Requests" style="rounded=1;align=center;arcSize=0;fillColor=none;strokeColor=#788AA3;fontColor=#46495D;fontStyle=0;startSize=20;labelBackgroundColor=none;endArrow=none;startArrow=classic;startFill=1;endFill=0;endSize=8;verticalAlign=middle;whiteSpace=wrap;fontSize=5;" vertex="1" parent="-M8wyw6FT1LA_XMjb7wH-80">
          <mxGeometry x="56" y="52" width="50" height="20" as="geometry" />
        </mxCell>
        <mxCell id="-M8wyw6FT1LA_XMjb7wH-81" value="" style="group" vertex="1" connectable="0" parent="-M8wyw6FT1LA_XMjb7wH-45">
          <mxGeometry x="177" y="80" width="106" height="72" as="geometry" />
        </mxCell>
        <mxCell id="-M8wyw6FT1LA_XMjb7wH-82" value="DC Tools" style="rounded=1;align=center;arcSize=0;fillColor=none;strokeColor=#788AA3;fontColor=#46495D;fontStyle=0;startSize=20;labelBackgroundColor=none;endArrow=none;startArrow=classic;startFill=1;endFill=0;endSize=8;verticalAlign=middle;whiteSpace=wrap;fontSize=5;glass=0;" vertex="1" parent="-M8wyw6FT1LA_XMjb7wH-81">
          <mxGeometry width="50" height="20" as="geometry" />
        </mxCell>
        <mxCell id="-M8wyw6FT1LA_XMjb7wH-83" value="Project Consulting" style="rounded=1;align=center;arcSize=0;fillColor=none;strokeColor=#788AA3;fontColor=#46495D;fontStyle=0;startSize=20;labelBackgroundColor=none;endArrow=none;startArrow=classic;startFill=1;endFill=0;endSize=8;verticalAlign=middle;whiteSpace=wrap;fontSize=5;" vertex="1" parent="-M8wyw6FT1LA_XMjb7wH-81">
          <mxGeometry x="56" width="50" height="20" as="geometry" />
        </mxCell>
        <mxCell id="-M8wyw6FT1LA_XMjb7wH-84" value="Workflows / Training " style="rounded=1;align=center;arcSize=0;fillColor=none;strokeColor=#788AA3;fontColor=#46495D;fontStyle=0;startSize=20;labelBackgroundColor=none;endArrow=none;startArrow=classic;startFill=1;endFill=0;endSize=8;verticalAlign=middle;whiteSpace=wrap;fontSize=5;" vertex="1" parent="-M8wyw6FT1LA_XMjb7wH-81">
          <mxGeometry y="26" width="50" height="20" as="geometry" />
        </mxCell>
        <mxCell id="-M8wyw6FT1LA_XMjb7wH-85" value="Productivity" style="rounded=1;align=center;arcSize=0;fillColor=none;strokeColor=#788AA3;fontColor=#46495D;fontStyle=0;startSize=20;labelBackgroundColor=none;endArrow=none;startArrow=classic;startFill=1;endFill=0;endSize=8;verticalAlign=middle;whiteSpace=wrap;fontSize=5;" vertex="1" parent="-M8wyw6FT1LA_XMjb7wH-81">
          <mxGeometry x="56" y="26" width="50" height="20" as="geometry" />
        </mxCell>
        <mxCell id="-M8wyw6FT1LA_XMjb7wH-86" value="Computational Standards" style="rounded=1;align=center;arcSize=0;fillColor=none;strokeColor=#788AA3;fontColor=#46495D;fontStyle=0;startSize=20;labelBackgroundColor=none;endArrow=none;startArrow=classic;startFill=1;endFill=0;endSize=8;verticalAlign=middle;whiteSpace=wrap;fontSize=5;perimeterSpacing=0;" vertex="1" parent="-M8wyw6FT1LA_XMjb7wH-81">
          <mxGeometry y="52" width="50" height="20" as="geometry" />
        </mxCell>
        <mxCell id="-M8wyw6FT1LA_XMjb7wH-87" value="Data / Analytics" style="rounded=1;align=center;arcSize=0;fillColor=none;strokeColor=#788AA3;fontColor=#46495D;fontStyle=0;startSize=20;labelBackgroundColor=none;endArrow=none;startArrow=classic;startFill=1;endFill=0;endSize=8;verticalAlign=middle;whiteSpace=wrap;fontSize=5;" vertex="1" parent="-M8wyw6FT1LA_XMjb7wH-81">
          <mxGeometry x="56" y="52" width="50" height="20" as="geometry" />
        </mxCell>
        <mxCell id="-M8wyw6FT1LA_XMjb7wH-89" value="" style="group" vertex="1" connectable="0" parent="-M8wyw6FT1LA_XMjb7wH-45">
          <mxGeometry x="310" y="80" width="106" height="72" as="geometry" />
        </mxCell>
        <mxCell id="-M8wyw6FT1LA_XMjb7wH-90" value="BIM Standards" style="rounded=1;align=center;arcSize=0;fillColor=none;strokeColor=#788AA3;fontColor=#46495D;fontStyle=0;startSize=20;labelBackgroundColor=none;endArrow=none;startArrow=classic;startFill=1;endFill=0;endSize=8;verticalAlign=middle;whiteSpace=wrap;fontSize=5;glass=0;" vertex="1" parent="-M8wyw6FT1LA_XMjb7wH-89">
          <mxGeometry width="50" height="20" as="geometry" />
        </mxCell>
        <mxCell id="-M8wyw6FT1LA_XMjb7wH-91" value="Project Consulting" style="rounded=1;align=center;arcSize=0;fillColor=none;strokeColor=#788AA3;fontColor=#46495D;fontStyle=0;startSize=20;labelBackgroundColor=none;endArrow=none;startArrow=classic;startFill=1;endFill=0;endSize=8;verticalAlign=middle;whiteSpace=wrap;fontSize=5;" vertex="1" parent="-M8wyw6FT1LA_XMjb7wH-89">
          <mxGeometry x="56" width="50" height="20" as="geometry" />
        </mxCell>
        <mxCell id="-M8wyw6FT1LA_XMjb7wH-92" value="Content Curation" style="rounded=1;align=center;arcSize=0;fillColor=none;strokeColor=#788AA3;fontColor=#46495D;fontStyle=0;startSize=20;labelBackgroundColor=none;endArrow=none;startArrow=classic;startFill=1;endFill=0;endSize=8;verticalAlign=middle;whiteSpace=wrap;fontSize=5;" vertex="1" parent="-M8wyw6FT1LA_XMjb7wH-89">
          <mxGeometry y="26" width="50" height="20" as="geometry" />
        </mxCell>
        <mxCell id="-M8wyw6FT1LA_XMjb7wH-93" value="Productivity" style="rounded=1;align=center;arcSize=0;fillColor=none;strokeColor=#788AA3;fontColor=#46495D;fontStyle=0;startSize=20;labelBackgroundColor=none;endArrow=none;startArrow=classic;startFill=1;endFill=0;endSize=8;verticalAlign=middle;whiteSpace=wrap;fontSize=5;" vertex="1" parent="-M8wyw6FT1LA_XMjb7wH-89">
          <mxGeometry x="56" y="26" width="50" height="20" as="geometry" />
        </mxCell>
        <mxCell id="-M8wyw6FT1LA_XMjb7wH-94" value="Workflows / Training" style="rounded=1;align=center;arcSize=0;fillColor=none;strokeColor=#788AA3;fontColor=#46495D;fontStyle=0;startSize=20;labelBackgroundColor=none;endArrow=none;startArrow=classic;startFill=1;endFill=0;endSize=8;verticalAlign=middle;whiteSpace=wrap;fontSize=5;perimeterSpacing=0;" vertex="1" parent="-M8wyw6FT1LA_XMjb7wH-89">
          <mxGeometry y="52" width="50" height="20" as="geometry" />
        </mxCell>
        <mxCell id="-M8wyw6FT1LA_XMjb7wH-95" value="Quality Reviews" style="rounded=1;align=center;arcSize=0;fillColor=none;strokeColor=#788AA3;fontColor=#46495D;fontStyle=0;startSize=20;labelBackgroundColor=none;endArrow=none;startArrow=classic;startFill=1;endFill=0;endSize=8;verticalAlign=middle;whiteSpace=wrap;fontSize=5;" vertex="1" parent="-M8wyw6FT1LA_XMjb7wH-89">
          <mxGeometry x="56" y="52" width="50" height="20" as="geometry" />
        </mxCell>
        <mxCell id="-M8wyw6FT1LA_XMjb7wH-66" value="" style="group;fontSize=10;rounded=0;" vertex="1" connectable="0" parent="FGJcHL9Y1ml9AOconmwc-68">
          <mxGeometry x="24" y="200" width="106" height="150" as="geometry" />
        </mxCell>
        <mxCell id="-M8wyw6FT1LA_XMjb7wH-18" value="Strategy" style="rounded=1;align=center;arcSize=0;fillColor=none;strokeColor=#788AA3;fontColor=#46495D;fontStyle=0;startSize=20;labelBackgroundColor=none;endArrow=none;startArrow=classic;startFill=1;endFill=0;endSize=8;verticalAlign=middle;whiteSpace=wrap;fontSize=5;glass=0;" vertex="1" parent="-M8wyw6FT1LA_XMjb7wH-66">
          <mxGeometry width="50" height="20" as="geometry" />
        </mxCell>
        <mxCell id="-M8wyw6FT1LA_XMjb7wH-55" value="Project Management" style="rounded=1;align=center;arcSize=0;fillColor=none;strokeColor=#788AA3;fontColor=#46495D;fontStyle=0;startSize=20;labelBackgroundColor=none;endArrow=none;startArrow=classic;startFill=1;endFill=0;endSize=8;verticalAlign=middle;whiteSpace=wrap;fontSize=5;" vertex="1" parent="-M8wyw6FT1LA_XMjb7wH-66">
          <mxGeometry x="56" width="50" height="20" as="geometry" />
        </mxCell>
        <mxCell id="-M8wyw6FT1LA_XMjb7wH-56" value="Knowledge Management" style="rounded=1;align=center;arcSize=0;fillColor=none;strokeColor=#788AA3;fontColor=#46495D;fontStyle=0;startSize=20;labelBackgroundColor=none;endArrow=none;startArrow=classic;startFill=1;endFill=0;endSize=8;verticalAlign=middle;whiteSpace=wrap;fontSize=5;" vertex="1" parent="-M8wyw6FT1LA_XMjb7wH-66">
          <mxGeometry y="26" width="50" height="20" as="geometry" />
        </mxCell>
        <mxCell id="-M8wyw6FT1LA_XMjb7wH-57" value="Project Realization Liaison" style="rounded=1;align=center;arcSize=0;fillColor=none;strokeColor=#788AA3;fontColor=#46495D;fontStyle=0;startSize=20;labelBackgroundColor=none;endArrow=none;startArrow=classic;startFill=1;endFill=0;endSize=8;verticalAlign=middle;whiteSpace=wrap;fontSize=5;" vertex="1" parent="-M8wyw6FT1LA_XMjb7wH-66">
          <mxGeometry x="56" y="26" width="50" height="20" as="geometry" />
        </mxCell>
        <mxCell id="-M8wyw6FT1LA_XMjb7wH-58" value="Budgeting" style="rounded=1;align=center;arcSize=0;fillColor=none;strokeColor=#788AA3;fontColor=#46495D;fontStyle=0;startSize=20;labelBackgroundColor=none;endArrow=none;startArrow=classic;startFill=1;endFill=0;endSize=8;verticalAlign=middle;whiteSpace=wrap;fontSize=5;perimeterSpacing=0;" vertex="1" parent="-M8wyw6FT1LA_XMjb7wH-66">
          <mxGeometry y="52" width="50" height="20" as="geometry" />
        </mxCell>
        <mxCell id="-M8wyw6FT1LA_XMjb7wH-59" value="Workflows" style="rounded=1;align=center;arcSize=0;fillColor=none;strokeColor=#788AA3;fontColor=#46495D;fontStyle=0;startSize=20;labelBackgroundColor=none;endArrow=none;startArrow=classic;startFill=1;endFill=0;endSize=8;verticalAlign=middle;whiteSpace=wrap;fontSize=5;" vertex="1" parent="-M8wyw6FT1LA_XMjb7wH-66">
          <mxGeometry x="56" y="52" width="50" height="20" as="geometry" />
        </mxCell>
        <mxCell id="-M8wyw6FT1LA_XMjb7wH-60" value="R&amp;D" style="rounded=1;align=center;arcSize=0;fillColor=none;strokeColor=#788AA3;fontColor=#46495D;fontStyle=0;startSize=20;labelBackgroundColor=none;endArrow=none;startArrow=classic;startFill=1;endFill=0;endSize=8;verticalAlign=middle;whiteSpace=wrap;fontSize=5;" vertex="1" parent="-M8wyw6FT1LA_XMjb7wH-66">
          <mxGeometry y="78" width="50" height="20" as="geometry" />
        </mxCell>
        <mxCell id="-M8wyw6FT1LA_XMjb7wH-61" value="Business&#xa;Alignment" style="rounded=1;align=center;arcSize=0;fillColor=none;strokeColor=#788AA3;fontColor=#46495D;fontStyle=0;startSize=20;labelBackgroundColor=none;endArrow=none;startArrow=classic;startFill=1;endFill=0;endSize=8;verticalAlign=middle;whiteSpace=wrap;fontSize=5;" vertex="1" parent="-M8wyw6FT1LA_XMjb7wH-66">
          <mxGeometry x="56" y="78" width="50" height="20" as="geometry" />
        </mxCell>
        <mxCell id="-M8wyw6FT1LA_XMjb7wH-62" value="Project&#xa;Consulting    " style="rounded=1;align=center;arcSize=0;fillColor=none;strokeColor=#788AA3;fontColor=#46495D;fontStyle=0;startSize=20;labelBackgroundColor=none;endArrow=none;startArrow=classic;startFill=1;endFill=0;endSize=8;verticalAlign=middle;whiteSpace=wrap;fontSize=5;" vertex="1" parent="-M8wyw6FT1LA_XMjb7wH-66">
          <mxGeometry y="104" width="50" height="20" as="geometry" />
        </mxCell>
        <mxCell id="-M8wyw6FT1LA_XMjb7wH-64" value="Visualization" style="rounded=1;align=center;arcSize=0;fillColor=none;strokeColor=#788AA3;fontColor=#46495D;fontStyle=0;startSize=20;labelBackgroundColor=none;endArrow=none;startArrow=classic;startFill=1;endFill=0;endSize=8;verticalAlign=middle;whiteSpace=wrap;fontSize=5;" vertex="1" parent="-M8wyw6FT1LA_XMjb7wH-66">
          <mxGeometry y="130" width="50" height="20" as="geometry" />
        </mxCell>
        <mxCell id="-M8wyw6FT1LA_XMjb7wH-67" value="PxP&#xa;Implementation" style="rounded=1;align=center;arcSize=0;fillColor=none;strokeColor=#788AA3;fontColor=#46495D;fontStyle=0;startSize=20;labelBackgroundColor=none;endArrow=none;startArrow=classic;startFill=1;endFill=0;endSize=8;verticalAlign=middle;whiteSpace=wrap;fontSize=5;" vertex="1" parent="-M8wyw6FT1LA_XMjb7wH-66">
          <mxGeometry x="56" y="104" width="50" height="20" as="geometry" />
        </mxCell>
        <mxCell id="FGJcHL9Y1ml9AOconmwc-95" style="edgeStyle=orthogonalEdgeStyle;rounded=1;orthogonalLoop=1;jettySize=auto;html=1;endArrow=none;endFill=0;fontSize=12;strokeColor=#788AA3;fontColor=#46495D;startSize=8;endSize=8;fillColor=#B2C9AB;" parent="1" source="FGJcHL9Y1ml9AOconmwc-70" edge="1">
          <mxGeometry relative="1" as="geometry">
            <mxPoint x="334" y="290" as="targetPoint" />
            <Array as="points">
              <mxPoint x="260" y="148" />
              <mxPoint x="260" y="290" />
            </Array>
          </mxGeometry>
        </mxCell>
        <mxCell id="FGJcHL9Y1ml9AOconmwc-96" style="edgeStyle=orthogonalEdgeStyle;rounded=1;orthogonalLoop=1;jettySize=auto;html=1;entryX=0;entryY=0.5;entryDx=0;entryDy=0;startArrow=blockThin;startFill=1;endArrow=none;endFill=0;fontSize=12;strokeColor=#788AA3;fontColor=#46495D;startSize=8;endSize=8;fillColor=#B2C9AB;" parent="1" source="FGJcHL9Y1ml9AOconmwc-70" target="FGJcHL9Y1ml9AOconmwc-69" edge="1">
          <mxGeometry relative="1" as="geometry">
            <Array as="points">
              <mxPoint x="260" y="148" />
              <mxPoint x="260" y="563" />
            </Array>
          </mxGeometry>
        </mxCell>
        <mxCell id="FGJcHL9Y1ml9AOconmwc-70" value="" style="html=1;verticalLabelPosition=bottom;align=center;labelBackgroundColor=#ffffff;verticalAlign=top;strokeWidth=1;strokeColor=#0080F0;shadow=0;dashed=0;shape=mxgraph.ios7.icons.user;rounded=1;glass=0;fontFamily=Helvetica;fontSize=12;fontColor=default;fillColor=#dae8fc;" parent="1" vertex="1">
          <mxGeometry x="103" y="108" width="80" height="80" as="geometry" />
        </mxCell>
        <mxCell id="FGJcHL9Y1ml9AOconmwc-94" value="&lt;b&gt;Kevin Reed&lt;/b&gt;&lt;br&gt;&lt;font style=&quot;font-size: 9px;&quot;&gt;Delivery Principal&lt;/font&gt;" style="text;html=1;strokeColor=none;fillColor=none;align=center;verticalAlign=middle;whiteSpace=wrap;rounded=0;" parent="1" vertex="1">
          <mxGeometry x="83" y="200" width="120" height="30" as="geometry" />
        </mxCell>
        <mxCell id="FGJcHL9Y1ml9AOconmwc-97" style="edgeStyle=orthogonalEdgeStyle;rounded=1;orthogonalLoop=1;jettySize=auto;html=1;endArrow=none;fontSize=12;strokeColor=#788AA3;fontColor=#46495D;startSize=8;endSize=8;fillColor=#B2C9AB;endFill=0;startArrow=blockThin;startFill=1;" parent="1" source="FGJcHL9Y1ml9AOconmwc-74" target="FGJcHL9Y1ml9AOconmwc-70" edge="1">
          <mxGeometry relative="1" as="geometry">
            <Array as="points">
              <mxPoint x="290" y="200" />
              <mxPoint x="290" y="148" />
            </Array>
          </mxGeometry>
        </mxCell>
        <mxCell id="-M8wyw6FT1LA_XMjb7wH-23" value="Digital" style="text;align=left;labelBackgroundColor=none;fontSize=14;fontStyle=0" vertex="1" parent="1">
          <mxGeometry x="365" y="35" width="110" height="20" as="geometry" />
        </mxCell>
      </root>
    </mxGraphModel>
  </diagram>
</mxfile>
